<svg width="221" height="54" viewBox="0 0 221 54" fill="none" xmlns="http://www.w3.org/2000/svg">
<g clip-path="url(#clip0_48_3830)">
<path d="M0.0351562 0.0666504C7.23211 0.0666504 14.1343 2.92267 19.2233 8.00641C24.3123 13.0902 27.1713 19.9852 27.1713 27.1747V52.9333C19.9744 52.9333 13.0722 50.0773 7.98315 44.9936C2.89414 39.9098 0.0351563 33.0148 0.0351562 25.8253V0.0666504Z" fill="#780096"/>
<path d="M29.541 31.0157V17.3373C29.541 15.0685 29.9885 12.822 30.8579 10.726C31.7273 8.63002 33.0016 6.72571 34.608 5.12186C36.2144 3.51801 38.1213 2.24605 40.2199 1.37866C42.3185 0.511269 44.5677 0.0654428 46.8388 0.0666528V13.7496C46.8388 16.0182 46.3913 18.2645 45.5218 20.3603C44.6524 22.456 43.378 24.36 41.7716 25.9635C40.1651 27.5669 38.2581 28.8385 36.1596 29.7054C34.061 30.5722 31.8119 31.0175 29.541 31.0157Z" fill="#780096"/>
<path d="M29.541 33.6868H49.3653C54.4714 33.6868 59.3683 35.7131 62.9789 39.3199C66.5894 42.9267 68.6178 47.8186 68.6178 52.9194H48.7936C43.6875 52.9194 38.7905 50.8931 35.18 47.2863C31.5694 43.6795 29.541 38.7876 29.541 33.6868Z" fill="#780096"/>
</g>
<path d="M127.645 52.9333H116.548L104.474 33.3625L100.345 36.349V52.9333H90.5723V6.48438H100.345V27.7391C100.996 26.8283 101.637 25.9175 102.268 25.0068C102.898 24.096 103.539 23.1852 104.191 22.2745L116.674 6.48438H127.519L111.441 27.0401L127.645 52.9333Z" fill="#780096"/>
<path d="M164.717 35.1099C164.717 38.0752 164.318 40.7016 163.519 42.9891C162.741 45.2766 161.596 47.2146 160.083 48.8031C158.591 50.3705 156.783 51.5566 154.661 52.3615C152.559 53.1663 150.184 53.5688 147.536 53.5688C145.056 53.5688 142.776 53.1663 140.696 52.3615C138.636 51.5566 136.839 50.3705 135.305 48.8031C133.792 47.2146 132.615 45.2766 131.774 42.9891C130.955 40.7016 130.545 38.0752 130.545 35.1099C130.545 31.1703 131.238 27.8344 132.625 25.1021C134.013 22.3698 135.988 20.2941 138.552 18.875C141.116 17.4559 144.174 16.7464 147.725 16.7464C151.025 16.7464 153.946 17.4559 156.489 18.875C159.053 20.2941 161.06 22.3698 162.51 25.1021C163.981 27.8344 164.717 31.1703 164.717 35.1099ZM140.349 35.1099C140.349 37.4398 140.601 39.399 141.105 40.9875C141.61 42.576 142.398 43.7727 143.47 44.5776C144.542 45.3825 145.939 45.7849 147.662 45.7849C149.365 45.7849 150.741 45.3825 151.792 44.5776C152.864 43.7727 153.642 42.576 154.125 40.9875C154.629 39.399 154.881 37.4398 154.881 35.1099C154.881 32.7589 154.629 30.8102 154.125 29.2641C153.642 27.6967 152.864 26.5212 151.792 25.7375C150.72 24.9538 149.323 24.562 147.599 24.562C145.056 24.562 143.207 25.441 142.051 27.199C140.916 28.9569 140.349 31.5939 140.349 35.1099Z" fill="#780096"/>
<path d="M192.143 24.6891H183.821V52.9333H174.206V24.6891H168.91V20.0188L174.206 17.4135V14.8083C174.206 11.7795 174.71 9.42847 175.719 7.75521C176.749 6.06076 178.188 4.87465 180.038 4.19688C181.908 3.49792 184.115 3.14844 186.658 3.14844C188.528 3.14844 190.231 3.30729 191.765 3.625C193.299 3.92153 194.549 4.26042 195.516 4.64167L193.057 11.7583C192.322 11.5253 191.523 11.3135 190.661 11.1229C189.8 10.9323 188.812 10.837 187.698 10.837C186.353 10.837 185.365 11.25 184.735 12.076C184.125 12.8809 183.821 13.9188 183.821 15.1896V17.4135H192.143V24.6891ZM217.142 24.6891H208.819V52.9333H199.204V24.6891H193.908V20.0188L199.204 17.4135V14.8083C199.204 11.7795 199.709 9.42847 200.718 7.75521C201.747 6.06076 203.187 4.87465 205.036 4.19688C206.907 3.49792 209.113 3.14844 211.656 3.14844C213.527 3.14844 215.229 3.30729 216.763 3.625C218.298 3.92153 219.548 4.26042 220.515 4.64167L218.056 11.7583C217.32 11.5253 216.522 11.3135 215.66 11.1229C214.798 10.9323 213.811 10.837 212.697 10.837C211.352 10.837 210.364 11.25 209.733 12.076C209.124 12.8809 208.819 13.9188 208.819 15.1896V17.4135H217.142V24.6891Z" fill="#780096"/>
<defs>
<clipPath id="clip0_48_3830">
<rect width="68.5965" height="52.8667" fill="white" transform="translate(0.0351562 0.0666504)"/>
</clipPath>
</defs>
</svg>
